<svg width="640" height="640" viewBox="0 0 640 640" fill="none" xmlns="http://www.w3.org/2000/svg">
    <path fill-rule="evenodd" clip-rule="evenodd" d="M389.819 47.2925L440.072 41.7087C440.1 42.0425 440.137 42.3739 440.181 42.7028L389.928 48.2865C389.9 47.9527 389.863 47.6213 389.819 47.2925ZM479.262 45.4013C479.172 45.7233 479.074 46.042 478.969 46.3572L580.306 77.5378C580.388 77.2125 580.486 76.8936 580.6 76.582L479.262 45.4013ZM475.041 53.1826C475.261 52.932 475.474 52.676 475.682 52.4146L512.649 83.2206C512.423 83.4656 512.209 83.7218 512.008 83.9884L475.041 53.1826ZM379.392 67.6624C379.098 67.8189 378.8 67.9683 378.498 68.1103L401.663 114.441C401.959 114.288 402.257 114.139 402.557 113.993L379.392 67.6624ZM38.9248 85.4839L83.2373 65.7895C83.3691 66.096 83.5047 66.4006 83.6439 66.7031L39.3316 86.3974C39.211 86.0851 39.075 85.7803 38.9248 85.4839ZM145.378 80.9199C145.121 81.1315 144.861 81.3399 144.598 81.5451L193.372 142.512C193.621 142.291 193.882 142.083 194.152 141.887L145.378 80.9199ZM138.176 168.023L190.287 152.389C190.367 152.715 190.463 153.035 190.574 153.347L138.463 168.981C138.371 168.66 138.276 168.34 138.176 168.023ZM437.011 186.213C436.71 186.355 436.406 186.493 436.101 186.627L461.271 242.001C461.57 241.855 461.873 241.717 462.181 241.586L437.011 186.213ZM486.889 249.281C487.067 249.562 487.239 249.848 487.404 250.138L553.11 210.715C552.931 210.434 552.759 210.148 552.594 209.858L486.889 249.281ZM488.755 266.961C488.639 267.274 488.515 267.584 488.384 267.89L510.54 276.752C510.648 276.435 510.773 276.125 510.911 275.824L488.755 266.961ZM578.4 280.127L571.712 219.928C572.045 219.899 572.377 219.863 572.706 219.819L579.394 280.018C579.058 280.038 578.727 280.075 578.4 280.127ZM570.84 294.018L488.71 335.084C488.874 335.373 489.024 335.671 489.158 335.978L571.288 294.913C571.125 294.623 570.975 294.325 570.84 294.018ZM495.485 382.715L483.041 349.529C483.36 349.428 483.672 349.31 483.977 349.178L496.421 382.364C496.108 382.477 495.795 382.594 495.485 382.715ZM439.57 437.09L471.067 429.215C471.144 429.54 471.224 429.864 471.309 430.186L439.812 438.06C439.747 437.73 439.666 437.407 439.57 437.09ZM572.162 376.211L542.839 397.155C542.649 396.882 542.455 396.611 542.257 396.342L571.58 375.397C571.761 375.678 571.955 375.95 572.162 376.211ZM390.437 176.945C390.212 176.699 389.991 176.45 389.772 176.198L337.132 222.99C337.365 223.227 337.587 223.477 337.796 223.737L390.437 176.945ZM383.039 165.321C382.912 165.013 382.788 164.703 382.668 164.392L288.382 202.106C288.514 202.412 288.638 202.721 288.754 203.035L383.039 165.321ZM92.1065 219.221C91.779 219.156 91.453 219.086 91.1285 219.013L73.7008 300.342C74.0297 300.403 74.3558 300.473 74.6788 300.55L92.1065 219.221ZM64.9875 300.633L53.2261 259.468C52.9123 259.575 52.5914 259.667 52.2645 259.743L64.0259 300.908C64.3431 300.808 64.6637 300.717 64.9875 300.633ZM60.606 400.018L67.2948 339.819C67.6237 339.863 67.9551 339.899 68.2888 339.928L61.6 400.127C61.2737 400.075 60.942 400.038 60.606 400.018ZM140.842 355.978L87.6641 329.389C87.8205 329.095 87.9699 328.797 88.1119 328.494L141.29 355.084C141.127 355.373 140.977 355.671 140.842 355.978ZM286.817 114.959L256.012 77.9922C256.278 77.7913 256.534 77.5774 256.779 77.3515L287.585 114.319C287.324 114.526 287.068 114.739 286.817 114.959ZM253.293 272.583L197.417 216.707C197.193 216.955 196.957 217.191 196.71 217.415L252.585 273.29C252.809 273.043 253.045 272.807 253.293 272.583ZM409.5 300.012V249.988C409.666 249.996 409.833 250 410 250C410.168 250 410.335 249.996 410.5 249.988V300.012C410.335 300.004 410.168 300 410 300C409.912 300 409.824 300.001 409.736 300.003C409.657 300.005 409.579 300.008 409.5 300.012ZM190.677 286.915L217.397 326.994C217.672 326.805 217.949 326.62 218.228 326.439L191.509 286.359C191.237 286.551 190.959 286.736 190.677 286.915ZM174.941 438.725L214.284 390.639C214.539 390.853 214.797 391.065 215.058 391.273L175.714 439.359C175.459 439.145 175.201 438.933 174.941 438.725ZM112.363 483.577L79.1777 496.022C79.3099 496.327 79.4273 496.639 79.5292 496.958L112.715 484.514C112.594 484.203 112.477 483.891 112.363 483.577ZM297.211 424.622C296.955 424.836 296.704 425.056 296.459 425.281L265.964 390.429C266.217 390.213 266.468 389.993 266.716 389.771L297.211 424.622ZM291.098 446.552C291.208 446.868 291.325 447.18 291.449 447.488L239.529 466.958C239.427 466.639 239.31 466.327 239.178 466.022L291.098 446.552ZM324.073 292.099C324.275 292.364 324.484 292.624 324.699 292.879L271.545 335.402C271.34 335.139 271.131 334.879 270.92 334.621L324.073 292.099ZM339.697 299.998C339.632 299.997 339.566 299.995 339.5 299.994V340.006C339.567 340.004 339.634 340.003 339.7 340.002C339.771 340.001 339.842 340 339.914 340L340 340C340.167 340 340.334 340.002 340.5 340.006V299.994C340.419 299.996 340.338 299.997 340.257 299.998C340.171 299.999 340.086 300 340 300L339.915 300L339.881 300C339.82 299.999 339.759 299.999 339.697 299.998ZM359.807 362.792C359.761 363.123 359.706 363.452 359.644 363.778L390.066 368.849C390.104 368.515 390.159 368.185 390.229 367.862L359.807 362.792ZM592.136 479.771C591.813 479.842 591.484 479.896 591.149 479.935L597.865 520.228C598.188 520.158 598.518 520.103 598.852 520.065L592.136 479.771ZM529.531 503.037L590.823 526.022C590.69 526.327 590.573 526.639 590.471 526.958L529.179 503.974C529.311 503.669 529.429 503.357 529.531 503.037ZM584.571 554.74L594.431 538.307C594.708 538.493 594.994 538.665 595.288 538.823L585.429 555.255L580.716 563.11C580.435 562.931 580.149 562.759 579.859 562.595L584.571 554.74ZM499.813 561.935L550.72 574.662C550.632 574.983 550.551 575.306 550.478 575.633L499.571 562.906C499.668 562.589 499.748 562.265 499.813 561.935ZM373.29 497.415L344.49 526.215C344.379 526.097 344.266 525.982 344.152 525.867C344.111 525.827 344.07 525.786 344.03 525.746C343.948 525.666 343.866 525.586 343.783 525.508L372.583 496.707C372.807 496.955 373.043 497.191 373.29 497.415ZM390.098 578.014C390.13 577.68 390.172 577.35 390.221 577.021L269.903 561.982C269.87 562.315 269.83 562.646 269.781 562.974L390.098 578.014ZM80.489 575.585L59.8934 571.466C59.8446 571.799 59.7793 572.126 59.6986 572.447L80.2938 576.566C80.3509 576.237 80.416 575.909 80.489 575.585Z" fill="white"/>
    <circle cx="100" cy="180" r="39.5" stroke="white"/>
    <circle cx="240" cy="360" r="39.5" stroke="white"/>
    <circle cx="420" cy="150" r="39.5" stroke="white"/>
    <circle cx="510" cy="420" r="39.5" stroke="white"/>
    <circle cx="150" cy="470" r="39.5" stroke="white"/>
    <circle cx="120" cy="50" r="39.5" stroke="white"/>
    <circle cx="180" cy="270" r="19.5" stroke="white"/>
    <circle cx="300" cy="130" r="19.5" stroke="white"/>
    <circle cx="370" cy="50" r="19.5" stroke="white"/>
    <circle cx="340" cy="280" r="19.5" stroke="white"/>
    <circle cx="340" cy="360" r="19.5" stroke="white"/>
    <circle cx="330" cy="540" r="19.5" stroke="white"/>
    <circle cx="100" cy="580" r="19.5" stroke="white"/>
    <circle cx="460" cy="40" r="19.5" stroke="white"/>
    <circle cx="250" cy="560" r="19.5" stroke="white"/>
    <circle cx="70" cy="320" r="19.5" stroke="white"/>
    <circle cx="270" cy="210" r="19.5" stroke="white"/>
    <circle cx="570" cy="200" r="19.5" stroke="white"/>
    <circle cx="470" cy="260" r="19.5" stroke="white"/>
    <circle cx="310" cy="440" r="19.5" stroke="white"/>
    <circle cx="410" cy="580" r="19.5" stroke="white"/>
    <circle cx="570" cy="580" r="19.5" stroke="white"/>
    <circle cx="520" cy="90" r="9.5" stroke="white"/>
    <circle cx="590" cy="80" r="9.5" stroke="white"/>
    <circle cx="400" cy="370" r="9.5" stroke="white"/>
    <circle cx="230" cy="470" r="9.5" stroke="white"/>
    <circle cx="150" cy="360" r="9.5" stroke="white"/>
    <circle cx="50" cy="250" r="9.5" stroke="white"/>
    <circle cx="190" cy="210" r="9.5" stroke="white"/>
    <circle cx="330" cy="230" r="9.5" stroke="white"/>
    <circle cx="260" cy="280" r="9.5" stroke="white"/>
    <circle cx="520" cy="170" r="9.5" stroke="white"/>
    <circle cx="520" cy="280" r="9.5" stroke="white"/>
    <circle cx="410" cy="310" r="9.5" stroke="white"/>
    <circle cx="590" cy="470" r="9.5" stroke="white"/>
    <circle cx="520" cy="500" r="9.5" stroke="white"/>
    <circle cx="380" cy="490" r="9.5" stroke="white"/>
    <circle cx="70" cy="500" r="9.5" stroke="white"/>
    <circle cx="330" cy="600" r="9.5" stroke="white"/>
    <circle cx="490" cy="610" r="9.5" stroke="white"/>
    <circle cx="490" cy="560" r="9.5" stroke="white"/>
    <circle cx="600" cy="530" r="9.5" stroke="white"/>
    <circle cx="190" cy="90" r="9.5" stroke="white"/>
    <circle cx="410" cy="240" r="9.5" stroke="white"/>
    <circle cx="60" cy="410" r="9.5" stroke="white"/>
    <circle cx="50" cy="570" r="9.5" stroke="white"/>
    <circle cx="160" cy="580" r="9.5" stroke="white"/>
    <circle cx="200" cy="150" r="9.5" stroke="white"/>
    <circle cx="30" cy="90" r="9.5" stroke="white"/>
    <circle cx="250" cy="70" r="9.5" stroke="white"/>
    <circle cx="580" cy="290" r="9.5" stroke="white"/>
    <circle cx="480" cy="340" r="9.5" stroke="white"/>
    <circle cx="580" cy="370" r="9.5" stroke="white"/>
    <circle cx="450" cy="510" r="9.5" stroke="white"/>
    <circle cx="430" cy="440" r="9.5" stroke="white"/>
</svg>
