<svg width="128" height="128" viewBox="0 0 128 128" fill="none" xmlns="http://www.w3.org/2000/svg">
    <g clip-path="url(#clip0)">
        <path fill-rule="evenodd" clip-rule="evenodd"
            d="M85.3333 48C85.3333 66.8079 71.4256 82.3674 53.3333 84.9553V106.667H42.6667V84.9553C24.5744 82.3674 10.6667 66.8079 10.6667 48C10.6667 27.3814 27.3814 10.6667 48 10.6667C68.6186 10.6667 85.3333 27.3814 85.3333 48ZM34.1471 57.5323C34.0241 57.9433 33.7705 58.4193 33.3419 58.4139C32.985 58.4098 32.7362 58.063 32.5875 57.7392C32.2045 56.8997 32.0733 55.9672 32.2096 55.0546C33.1594 54.8687 33.8415 53.8113 33.6191 52.8696L34.2485 52.8338C34.6372 54.3711 34.6021 56.0132 34.1471 57.5323ZM64.7059 54.4894C64.3495 54.4035 64.2265 54.0469 64.0989 53.6766C64.0225 53.4549 63.9445 53.2283 63.8136 53.0521C63.2734 52.3247 62.1309 52.7039 61.3406 53.1461C60.9363 53.372 60.5267 53.5925 60.1166 53.8133L60.1165 53.8133C59.2919 54.2571 58.4651 54.7022 57.6751 55.1952C56.3923 55.9953 56.1741 57.5198 55.977 58.8966L55.9769 58.8972L55.9767 58.8984C55.9599 59.0157 55.9433 59.132 55.9261 59.2467C55.9007 59.4171 55.86 59.5807 55.821 59.7373L55.8209 59.7373C55.6931 60.2506 55.5841 60.6885 56.0938 61.0423C56.8811 61.5889 57.8695 60.9844 58.8099 60.4094C59.3723 60.0655 59.9175 59.7322 60.3921 59.6618C61.4618 59.5033 61.8936 60.4012 62.3292 61.3071C62.5811 61.8308 62.8342 62.3571 63.2126 62.6838C63.4431 62.8798 63.7134 63.0235 64.0048 63.105C64.2962 63.1864 64.6019 63.2037 64.9006 63.1556C65.1986 63.1031 65.4817 62.9866 65.7303 62.8141C65.9789 62.6416 66.1871 62.4172 66.3406 62.1564C66.5813 61.2113 66.9923 60.6171 67.5494 59.8133C67.9523 59.2319 68.3748 58.5734 68.268 57.8744C68.1945 57.3937 67.8865 57.0011 67.5811 56.6119C67.4961 56.5035 67.4112 56.3954 67.3317 56.2856C66.8975 55.6778 66.6052 54.9803 66.4761 54.2445C66.3471 53.5087 66.3846 52.7533 66.586 52.034C66.0114 52.0306 65.7869 52.7648 65.7004 53.3333C65.6132 53.9012 65.265 54.6239 64.7059 54.4894ZM49.6179 46.2355L49.7098 45.9408C50.3263 46.03 50.8665 46.4093 51.2992 46.8575C51.5616 47.1289 51.7929 47.4274 52.0241 47.7259L52.0241 47.726C52.1746 47.9203 52.3251 48.1146 52.4843 48.3015C53.4874 49.4744 54.809 50.3313 56.2891 50.7684C57.5732 51.1449 58.9192 51.1896 60.2619 51.2342H60.262C60.6334 51.2465 61.0047 51.2588 61.3743 51.2781C60.7091 51.7507 59.862 51.9116 59.0467 51.8812C58.2314 51.8508 57.4336 51.6439 56.644 51.4384C55.4995 51.1402 54.3394 50.8353 53.3165 50.2418C52.738 49.9065 52.216 49.4821 51.7697 48.9843C51.379 48.5462 51.0531 48.0548 50.7583 47.547L50.7113 47.4657C50.4295 46.9779 50.1301 46.4596 49.6179 46.2355ZM56.9023 49.6042C57.047 49.613 57.1984 49.611 57.3269 49.5447C57.619 49.3941 57.6609 49.01 57.6971 48.6782L57.7021 48.6327C57.7642 48.069 57.9488 47.5256 58.2429 47.0406C58.2776 46.9835 58.3139 46.927 58.3502 46.8706L58.3503 46.8704L58.3504 46.8702L58.3506 46.87L58.3507 46.8698L58.3508 46.8696C58.462 46.6966 58.5732 46.5235 58.6404 46.3301C58.7297 46.0732 58.7249 45.7616 58.5444 45.5581C58.3375 45.3242 57.9664 45.3086 57.6764 45.4249C57.4439 45.5176 57.2475 45.6771 57.0523 45.8357C57.004 45.8749 56.9557 45.9141 56.907 45.9522C56.7564 46.0701 56.5987 46.1793 56.4412 46.2884L56.4411 46.2885L56.441 46.2885L56.4409 46.2886L56.4408 46.2887L56.4408 46.2887C56.1927 46.4606 55.9447 46.6324 55.724 46.8378C55.3629 47.1731 55.0722 47.6295 55.0871 48.1223C55.1 48.5509 55.3508 48.9518 55.6969 49.206C56.0424 49.4595 56.4737 49.5778 56.9023 49.6042ZM63.493 49.4454C63.0792 49.2237 62.6844 48.8005 62.7879 48.3428C62.9907 48.2082 63.2557 48.3982 63.3909 48.601C63.3996 48.6142 63.4084 48.6275 63.4171 48.641L63.4408 48.6775C63.5603 48.8625 63.6882 49.0606 63.8993 49.0932C64.0833 49.1216 64.2388 49.013 64.3976 48.9022C64.4885 48.8387 64.5805 48.7745 64.6794 48.7349C65.0452 48.5889 65.4481 48.7957 65.7875 48.9965L68.2807 50.4723C68.1958 50.5509 68.133 50.6504 68.0985 50.7608C68.064 50.8712 68.059 50.9888 68.084 51.1017C68.3639 51.1977 68.6586 51.3039 68.8473 51.5317C69.0359 51.7595 69.0616 52.1503 68.8202 52.322C68.5187 52.537 68.109 52.2659 67.8798 51.9759L67.8625 51.9539L67.8268 51.9083C67.611 51.6323 67.371 51.3253 67.0294 51.3309C66.8526 51.3338 66.6971 51.424 66.5407 51.5148C66.4011 51.5958 66.2607 51.6772 66.1039 51.6973C65.7368 51.7447 65.4143 51.4425 65.2338 51.12C65.1711 51.0084 65.1175 50.8911 65.0639 50.7739C64.9627 50.5524 64.8618 50.3316 64.7004 50.1512C64.478 49.9029 64.1711 49.7634 63.8636 49.6238C63.7382 49.5668 63.6128 49.5098 63.493 49.4454ZM63.0172 32.0712L63.0171 32.0712C62.8552 31.7444 62.691 31.4131 62.8114 31.0853C62.8153 31.0747 62.8195 31.0642 62.8238 31.0537C62.8288 31.0416 62.8339 31.0296 62.8391 31.0176C62.8672 30.9522 62.8954 30.8868 62.8898 30.8169C62.8774 30.6674 62.7266 30.5828 62.5925 30.5074L62.5586 30.4883C62.0785 30.2154 61.8067 29.7107 61.5402 29.2159L61.54 29.2156L61.54 29.2156C61.4831 29.1099 61.4265 29.0047 61.3681 28.9023C61.0361 28.3202 60.4879 27.7328 59.8213 27.8051L60.6312 28.8597C61.2099 29.6135 61.8001 30.3889 62.0739 31.2982C62.3477 32.2082 62.2422 33.2946 61.5648 33.9612C61.4492 34.0748 61.3203 34.1737 61.1914 34.2725C61.0933 34.3477 60.9952 34.4229 60.903 34.5047C60.6893 34.694 60.5 34.9354 60.4635 35.2186C60.427 35.5019 60.5899 35.8244 60.8691 35.8852C61.0517 35.9251 61.2389 35.8521 61.4073 35.7703C62.0394 35.4634 62.6147 35.0057 62.9676 34.3972C63.3205 33.7888 63.4259 33.0208 63.1576 32.3711C63.1165 32.2717 63.067 32.1717 63.0172 32.0712ZM62.9953 64.3975C63.0048 64.2941 63.0163 64.1852 63.0765 64.1007C63.1867 63.9459 63.4118 63.9324 63.5984 63.9621C63.6312 63.9672 63.6644 63.9732 63.6977 63.9792L63.6978 63.9792C63.8544 64.0073 64.0143 64.036 64.1609 63.9797C63.9502 64.459 63.6772 64.9084 63.3489 65.3163C63.2347 65.4582 63.0542 65.609 62.8919 65.5258L62.9953 64.3975ZM58.5666 20.6837C58.2496 20.8208 57.934 20.9708 57.6204 21.12C57.3046 21.2702 56.9907 21.4194 56.6791 21.5537C54.3778 22.5448 51.8237 22.7341 49.3244 22.9105L45.4087 23.1871C45.3871 23.594 45.0362 23.9577 44.6306 23.9943C44.225 24.0314 43.8146 23.7367 43.7199 23.3405C42.4706 24.2539 40.7927 24.5506 39.3054 24.1227C39.3074 23.5663 40.0916 23.2046 40.5162 23.565C40.7467 22.8058 40.1139 22.0019 39.3601 21.7532C38.6063 21.5044 37.7863 21.6572 37.0082 21.812C36.1083 21.9911 35.1882 22.1777 34.3986 22.6449C33.609 23.1127 32.9607 23.9233 32.9411 24.8407L37.9026 22.6949L35.2761 25.0225C34.7454 25.4924 34.1383 25.992 33.4298 25.9615C32.7213 25.9311 32.1001 25.0043 32.5963 24.4979C31.756 25.0931 30.7235 25.2481 29.6887 25.4035C29.5622 25.4225 29.4356 25.4415 29.3093 25.4613C34.3844 21.2434 40.9008 18.7042 48 18.7042C51.725 18.7042 55.2864 19.41 58.5666 20.6837ZM26.165 28.4954C26.9229 28.444 27.7064 28.7529 28.1966 29.3371C28.7881 30.0415 28.9199 31.0988 28.5197 31.9277L30.0848 31.7695L30.2666 32.603L31.7796 32.7004C31.712 33.7476 30.9873 34.7231 30.0043 35.0916C29.0213 35.4593 27.8342 35.199 27.0953 34.454C26.5707 34.7481 25.9737 34.0856 25.9419 33.4846C25.9282 33.2246 25.9671 32.964 26.0058 32.7042C26.0567 32.3635 26.1073 32.0242 26.0386 31.6897C25.8973 31.0042 25.2673 30.5654 24.5675 30.437C25.0723 29.7674 25.6052 29.1196 26.165 28.4954ZM53.8248 76.7124C53.933 76.4305 53.9688 76.1283 53.8931 75.8315C54.3951 75.9004 54.906 75.8613 55.3916 75.717C55.8773 75.5727 56.3266 75.3264 56.7095 74.9945C57.1314 73.9663 56.5385 72.7467 55.6387 72.095C54.7388 71.4433 53.6051 71.2249 52.5126 71.0234C50.1106 70.5806 47.6762 70.8504 45.2735 71.1323C43.29 71.3648 41.0489 71.7935 39.6481 73.3531C39.066 74.0008 38.6875 74.8654 38.582 75.7335C27.0358 71.8016 18.7042 60.8591 18.7042 48C18.7042 46.6053 18.809 45.235 18.9983 43.891C19.3539 44.3669 19.8893 44.7117 20.4754 44.6955L22.2825 52.253C23.0316 55.3851 23.8205 58.6065 25.7107 61.214C26.1089 61.7636 26.5957 62.3078 27.2521 62.4809C28.3196 62.7621 29.4141 61.9124 29.8339 60.8909C30.2038 59.9909 30.1943 58.9955 30.185 58.016C30.1837 57.8836 30.1824 57.7516 30.1821 57.6201C30.178 52.6597 31.6187 47.8054 34.3283 43.6503C33.2446 44.0336 31.8236 44.3284 31.1252 43.4157C30.8122 43.0067 30.7547 42.4632 30.7088 41.9507L30.2301 36.6262C31.1353 38.6852 31.6693 40.8881 31.8073 43.1331C33.5328 42.8848 35.159 42.1747 36.514 41.078C36.9047 40.7609 37.2975 40.3553 37.309 39.8523C37.3259 39.1294 36.6465 38.7657 35.9489 38.3922C35.3038 38.0468 34.643 37.6931 34.5027 37.0392C34.5313 37.1731 35.9058 37.648 37.1773 38.0873L37.1773 38.0873C38.1351 38.4182 39.0344 38.7289 39.256 38.8585C40.3514 39.4988 40.8561 40.6908 41.3527 41.8636C41.5016 42.2152 41.6497 42.5651 41.8128 42.8979C41.9208 43.1182 41.9947 43.3552 42.0685 43.5919C42.1698 43.9168 42.2709 44.2411 42.4598 44.5211C42.6957 44.8699 43.1041 45.1356 43.5212 45.0788C44.2131 44.9843 44.7321 43.6831 45.1166 42.7191C45.2438 42.4003 45.3562 42.1183 45.4554 41.9291C46.2328 40.4438 47.1157 39.4987 48.2887 41.011C48.5174 41.306 48.7652 41.6112 49.0193 41.9243L49.0194 41.9243C49.8713 42.9735 50.7952 44.1114 51.3133 45.2532C51.4135 45.474 51.5007 45.7082 51.5879 45.9427C51.9646 46.9547 52.3425 47.9701 53.7734 47.9141C53.9627 47.9067 52.7087 46.0178 52.6066 45.8901C52.0015 45.1336 51.6574 44.3818 51.2525 43.4637C51.7642 44.1175 52.4964 44.6488 53.3245 44.7131C54.152 44.7766 55.0478 44.2587 55.2229 43.4475C55.398 42.6362 54.6043 41.7188 53.8012 41.9291C53.5943 41.4674 53.9891 40.9319 54.4569 40.7393C54.7487 40.6195 55.0631 40.5836 55.3783 40.5477L55.3784 40.5477C55.5686 40.526 55.759 40.5043 55.9449 40.4641C57.7303 40.0774 58.7147 37.6781 57.7148 36.1489C57.6225 36.0077 57.5167 35.8613 57.4087 35.7119C56.916 35.0301 56.3784 34.2863 56.8731 33.6962C57.2274 33.2737 57.9453 33.348 58.3516 33.7205C58.7579 34.093 58.9168 34.6616 58.9993 35.2072L59.5104 35.0868C59.9809 32.8106 60.3967 30.318 59.3136 28.2608C59.2992 28.2333 59.2844 28.2055 59.2695 28.1775C59.2594 28.1585 59.2491 28.1394 59.2389 28.1201C58.9454 27.5711 58.6113 26.9458 58.9242 26.4294C59.0498 26.2225 59.2543 26.0894 59.4602 25.9555C59.5724 25.8825 59.6851 25.8092 59.7855 25.7236C60.0701 25.4809 60.231 24.9793 59.9255 24.7636L60.8915 24.8069C60.8192 26.3983 62.0232 27.9525 63.5822 28.2817C62.8294 26.3206 62.2668 24.2917 61.9022 22.223C71.06 27.1818 77.2945 36.8777 77.2945 48.0027C77.2958 62.1598 67.1977 74.0035 53.8248 76.7124ZM71.2622 64.1704L66.0742 68.4511C68.4424 68.2206 70.5868 66.4514 71.2622 64.1704Z"
            fill="#4286F4" />
        <path fill-rule="evenodd" clip-rule="evenodd"
            d="M112 96V106.667H96V96C93.0545 96 90.6667 93.6122 90.6667 90.6667V74.6667C90.6667 71.7333 93.0667 69.3333 96 69.3333L112 69.3334C114.933 69.3334 117.333 71.7333 117.333 74.6667V90.6667C117.333 93.6122 114.946 96 112 96Z"
            fill="#4286F4" />
        <path
            d="M104 64C108.427 64 112 60.4267 112 56C112 51.5733 108.427 48 104 48C99.5733 48 96 51.5733 96 56C96 60.4267 99.5733 64 104 64Z"
            fill="#4286F4" />
        <path fill-rule="evenodd" clip-rule="evenodd"
            d="M112 106.667H26.6667C23.7212 106.667 21.3333 109.054 21.3333 112C21.3333 114.946 23.7212 117.333 26.6667 117.333H106.667C109.612 117.333 112 114.946 112 112V106.667Z"
            fill="#4286F4" />
    </g>
    <defs>
        <clipPath id="clip0">
            <rect width="128" height="128" fill="white" />
        </clipPath>
    </defs>
</svg>